Run_30001
nRows=4
nColumns=164

# SIMM Motion File Header:
name Run_30001
datacolumns 164
datarows 4
otherdata 1
range 0.03333300 0.05833300
endheader
time	pelvis_tilt	pelvis_list	pelvis_rotation	pelvis_tx	pelvis_ty	pelvis_tz	hip_flexion_r	hip_adduction_r	hip_rotation_r	knee_angle_r	ankle_angle_r	hip_flexion_l	hip_adduction_l	hip_rotation_l	knee_angle_l	ankle_angle_l	lumbar_extension	lumbar_bending	lumbar_rotation	arm_flex_r	arm_add_r	arm_rot_r	elbow_flex_r	pro_sup_r	arm_flex_l	arm_add_l	arm_rot_l	elbow_flex_l	pro_sup_l	subtalar_angle_r	mtp_angle_r	subtalar_angle_l	mtp_angle_l	wrist_flex_r	wrist_dev_r	wrist_flex_l	wrist_dev_l	LASI_tx	LASI_ty	LASI_tz	RASI_tx	RASI_ty	RASI_tz	LPSI_tx	LPSI_ty	LPSI_tz	RPSI_tx	RPSI_ty	RPSI_tz	RTH1_tx	RTH1_ty	RTH1_tz	RTH2_tx	RTH2_ty	RTH2_tz	RTH3_tx	RTH3_ty	RTH3_tz	LTH1_tx	LTH1_ty	LTH1_tz	LTH2_tx	LTH2_ty	LTH2_tz	LTH3_tx	LTH3_ty	LTH3_tz	RTB1_tx	RTB1_ty	RTB1_tz	RTB2_tx	RTB2_ty	RTB2_tz	RTB3_tx	RTB3_ty	RTB3_tz	LTB1_tx	LTB1_ty	LTB1_tz	LTB2_tx	LTB2_ty	LTB2_tz	LTB3_tx	LTB3_ty	LTB3_tz	RCAL_tx	RCAL_ty	RCAL_tz	RTOE_tx	RTOE_ty	RTOE_tz	RMT5_tx	RMT5_ty	RMT5_tz	LCAL_tx	LCAL_ty	LCAL_tz	LTOE_tx	LTOE_ty	LTOE_tz	LMT5_tx	LMT5_ty	LMT5_tz	LACR_tx	LACR_ty	LACR_tz	RACR_tx	RACR_ty	RACR_tz	CLAV_tx	CLAV_ty	CLAV_tz	C7_tx	C7_ty	C7_tz	RUA1_tx	RUA1_ty	RUA1_tz	RUA2_tx	RUA2_ty	RUA2_tz	RUA3_tx	RUA3_ty	RUA3_tz	RLEL_tx	RLEL_ty	RLEL_tz	RMEL_tx	RMEL_ty	RMEL_tz	LUA1_tx	LUA1_ty	LUA1_tz	LUA2_tx	LUA2_ty	LUA2_tz	LUA3_tx	LUA3_ty	LUA3_tz	LLEL_tx	LLEL_ty	LLEL_tz	LMEL_tx	LMEL_ty	LMEL_tz	RFAsuperior_tx	RFAsuperior_ty	RFAsuperior_tz	RFAradius_tx	RFAradius_ty	RFAradius_tz	RFAulna_tx	RFAulna_ty	RFAulna_tz	LFAsuperior_tx	LFAsuperior_ty	LFAsuperior_tz	LFAradius_tx	LFAradius_ty	LFAradius_tz	LFAulna_tx	LFAulna_ty	LFAulna_tz
      0.03333300	      1.75784648	     -1.66141361	      6.37572864	      0.72805302	      0.99933454	     -0.39871689	     35.00130758	     -3.56826460	     -9.28445418	    -83.46946755	     -4.15447505	    -13.66095834	     -0.31070636	      5.97064912	    -17.01975328	      2.86921364	    -14.53299205	      1.68434129	    -14.50103274	    -34.46662856	    -25.39615199	      1.60942711	    110.29847991	     60.86210812	      0.22436569	    -35.33849206	      3.05634267	    125.48359031	     93.16419184	      0.00000000	      0.00000000	      0.00000000	      0.00000000	      0.00000000	      0.00000000	      0.00000000	      0.00000000	      0.73369343	      1.00675817	     -0.52501390	      0.73282225	      1.03131399	     -0.27574474	      0.56579028	      1.03774839	     -0.42955607	      0.56752689	      1.04111957	     -0.34326206	      0.75947682	      0.86489466	     -0.22014119	      0.87436887	      0.79446584	     -0.24015770	      0.86989010	      0.65587110	     -0.22409716	      0.66771178	      0.86510456	     -0.55658327	      0.69555325	      0.74544689	     -0.53880188	      0.58984186	      0.62653205	     -0.52874726	      0.87049499	      0.46801079	     -0.28980305	      0.79216678	      0.44878522	     -0.24229315	      0.72938293	      0.35851544	     -0.31335477	      0.55313371	      0.38432571	     -0.45562475	      0.46539027	      0.31073437	     -0.50699278	      0.44375884	      0.22814606	     -0.43354253	      0.55923003	      0.35011014	     -0.33448375	      0.69302886	      0.17563423	     -0.32905742	      0.64471854	      0.18528184	     -0.24273801	      0.28202688	      0.16675463	     -0.43724853	      0.47678656	      0.07332449	     -0.42040252	      0.43710442	      0.06046838	     -0.50154932	      0.74701979	      1.45461723	     -0.58963630	      0.67944913	      1.48113907	     -0.22021406	      0.80393048	      1.43716346	     -0.35721687	      0.67706061	      1.52019861	     -0.41679876	      0.61910647	      1.39781426	     -0.15525831	      0.61551993	      1.32733582	     -0.14592437	      0.51148296	      1.34597641	     -0.13610719	      0.50671605	      1.26067095	     -0.08585129	      0.46447403	      1.24849405	     -0.16402758	      0.73280867	      1.38159758	     -0.64931489	      0.67463803	      1.31058283	     -0.65119977	      0.73583967	      1.29644548	     -0.69474203	      0.73443951	      1.19745980	     -0.74779777	      0.68690186	      1.14037618	     -0.69424804	      0.57683478	      1.21216585	     -0.09364941	      0.70928259	      1.12970903	     -0.15368655	      0.65844523	      1.08295051	     -0.15762509	      0.79736101	      1.21378755	     -0.71357417	      0.89647463	      1.23376546	     -0.57090849	      0.92248659	      1.17889035	     -0.59897835
      0.04166700	      1.73054797	     -2.22262367	      6.26556572	      0.73009904	      1.00556845	     -0.39910083	     34.81126806	     -2.75821713	     -9.68785505	    -78.23600141	     -3.91919849	    -15.81329320	     -1.24510233	      5.67157402	    -15.03545195	     -1.65771373	    -14.20517690	      2.57061404	    -14.97938485	    -35.41836896	    -25.76915137	      0.40602869	    111.03160062	     60.45403176	     -0.96766273	    -35.07286628	      3.79887623	    126.43629703	     92.05830708	      0.00000000	      0.00000000	      0.00000000	      0.00000000	      0.00000000	      0.00000000	      0.00000000	      0.00000000	      0.73605584	      1.01173617	     -0.52462295	      0.73359930	      1.03847007	     -0.27683620	      0.56808638	      1.04403975	     -0.43082951	      0.56940576	      1.04762876	     -0.34443306	      0.76267219	      0.87309372	     -0.22085217	      0.87641771	      0.80136211	     -0.24107826	      0.87046869	      0.66164145	     -0.22685545	      0.66683409	      0.87016607	     -0.55685507	      0.69109335	      0.74950380	     -0.53822735	      0.58050781	      0.63530308	     -0.52823567	      0.88117804	      0.47040376	     -0.29133299	      0.80460550	      0.44451712	     -0.24442679	      0.75035885	      0.34944546	     -0.31587257	      0.53873608	      0.39385676	     -0.45711391	      0.45030530	      0.32150696	     -0.50939253	      0.42892942	      0.23763527	     -0.43665975	      0.58212602	      0.32595065	     -0.33932533	      0.73054078	      0.16429504	     -0.32920595	      0.68002698	      0.17056083	     -0.24412552	      0.26788191	      0.18017721	     -0.44080054	      0.45521890	      0.07384626	     -0.42151098	      0.41453469	      0.06158852	     -0.50238608	      0.75017866	      1.46259385	     -0.58758633	      0.67715934	      1.48732176	     -0.22000743	      0.80288297	      1.44432438	     -0.35482935	      0.67734719	      1.52643043	     -0.41582618	      0.61592304	      1.40553955	     -0.15554627	      0.61191198	      1.33503178	     -0.14545579	      0.50780791	      1.35423215	     -0.13785429	      0.50142327	      1.26952258	     -0.08712223	      0.46074620	      1.25686043	     -0.16604492	      0.73637032	      1.39019644	     -0.64782102	      0.67710248	      1.32048685	     -0.65165914	      0.73920600	      1.30454811	     -0.69280295	      0.73680655	      1.20567377	     -0.74619263	      0.68605631	      1.14985751	     -0.69376467	      0.57158649	      1.22130613	     -0.09297543	      0.70581972	      1.13910872	     -0.14909276	      0.65541900	      1.09175741	     -0.15411743	      0.79903970	      1.22135488	     -0.71061945	      0.89401440	      1.24122231	     -0.56570546	      0.91949285	      1.18549231	     -0.59160429
      0.05000000	      1.61547821	     -2.81149807	      6.16434509	      0.73218201	      1.01133290	     -0.39934417	     34.47333541	     -1.87529205	    -10.06002500	    -72.68139916	     -3.85973189	    -17.63841075	     -2.17042049	      5.18027031	    -13.41807795	     -6.02902741	    -13.78514195	      3.47130664	    -15.46395157	    -36.32596147	    -26.16327785	     -0.75028044	    111.70861226	     60.37135868	     -2.27041298	    -34.84614191	      4.46845458	    127.39894430	     91.26610090	      0.00000000	      0.00000000	      0.00000000	      0.00000000	      0.00000000	      0.00000000	      0.00000000	      0.00000000	      0.73850215	      1.01645079	     -0.52404801	      0.73458515	      1.04536326	     -0.27763591	      0.57052976	      1.05027847	     -0.43202948	      0.57132970	      1.05409605	     -0.34549553	      0.76558681	      0.88073852	     -0.22157114	      0.87799186	      0.80739715	     -0.24178484	      0.87010948	      0.66645900	     -0.23001098	      0.66611309	      0.87493301	     -0.55701857	      0.68676035	      0.75355164	     -0.53777476	      0.57205273	      0.64368157	     -0.52790140	      0.89129842	      0.47234534	     -0.29272994	      0.81677114	      0.43998462	     -0.24645573	      0.77124850	      0.34048941	     -0.31825324	      0.52583083	      0.40271936	     -0.45874154	      0.43640698	      0.33178994	     -0.51164651	      0.41506792	      0.24685868	     -0.43954693	      0.60573730	      0.30193874	     -0.34383389	      0.76811081	      0.15415000	     -0.32938843	      0.71577004	      0.15666874	     -0.24539142	      0.25472678	      0.19428418	     -0.44400182	      0.43413988	      0.07516065	     -0.42267402	      0.39240942	      0.06328468	     -0.50348077	      0.75333414	      1.47029463	     -0.58550607	      0.67505738	      1.49319908	     -0.21975543	      0.80194736	      1.45106689	     -0.35249924	      0.67769506	      1.53238031	     -0.41482451	      0.61300446	      1.41284220	     -0.15573555	      0.60858043	      1.34231181	     -0.14501397	      0.50444153	      1.36205488	     -0.13943137	      0.49652347	      1.27793162	     -0.08824938	      0.45726510	      1.26481142	     -0.16789088	      0.73984253	      1.39862514	     -0.64631901	      0.67941292	      1.33028533	     -0.65213639	      0.74233241	      1.31260205	     -0.69104639	      0.73881061	      1.21378202	     -0.74478126	      0.68494707	      1.15922141	     -0.69356456	      0.56673548	      1.23002388	     -0.09218203	      0.70258422	      1.14798081	     -0.14485931	      0.65259793	      1.10013837	     -0.15047521	      0.80036072	      1.22876079	     -0.70791980	      0.89132643	      1.24829836	     -0.56068935	      0.91616669	      1.19183909	     -0.58491719
      0.05833300	      1.37996362	     -3.32759139	      6.02692790	      0.73430265	      1.01645674	     -0.39932087	     34.03097884	     -0.99662380	    -10.31504358	    -66.84729343	     -3.74954788	    -18.94337936	     -2.95119171	      4.43014488	    -12.49932521	    -10.00005030	    -13.25848074	      4.25285729	    -15.94263514	    -37.11566252	    -26.56054709	     -1.78460343	    112.26308074	     60.74910476	     -3.78227528	    -34.70607327	      4.97834810	    128.39493835	     90.86746283	      0.00000000	      0.00000000	      0.00000000	      0.00000000	      0.00000000	      0.00000000	      0.00000000	      0.00000000	      0.74103083	      1.02081501	     -0.52311627	      0.73582758	      1.05174204	     -0.27792834	      0.57315410	      1.05637493	     -0.43310137	      0.57335631	      1.06047228	     -0.34638258	      0.76795054	      0.88732274	     -0.22225479	      0.87881360	      0.81198364	     -0.24216193	      0.86834147	      0.66973435	     -0.23365215	      0.66562324	      0.87929412	     -0.55703312	      0.68276846	      0.75758286	     -0.53760293	      0.56514270	      0.65125546	     -0.52783997	      0.90042601	      0.47353520	     -0.29399953	      0.82846675	      0.43503154	     -0.24831722	      0.79188532	      0.33175001	     -0.32042512	      0.51525273	      0.41042082	     -0.46050724	      0.42441033	      0.34123116	     -0.51365918	      0.40264867	      0.25565830	     -0.44205388	      0.63035861	      0.27819770	     -0.34768440	      0.80561284	      0.14606172	     -0.32969996	      0.75216930	      0.14428421	     -0.24648801	      0.24315443	      0.20949543	     -0.44657522	      0.41378927	      0.07782586	     -0.42390830	      0.37078576	      0.06597943	     -0.50481823	      0.75645964	      1.47748011	     -0.58338513	      0.67326021	      1.49852252	     -0.21948187	      0.80122086	      1.45710912	     -0.35025110	      0.67814392	      1.53783397	     -0.41377855	      0.61050925	      1.41943741	     -0.15577823	      0.60570897	      1.34889482	     -0.14459891	      0.50157323	      1.36914154	     -0.14071568	      0.49226388	      1.28558724	     -0.08914160	      0.45421137	      1.27204387	     -0.16945098	      0.74315729	      1.40671659	     -0.64481323	      0.68150155	      1.33987401	     -0.65264756	      0.74507865	      1.32052949	     -0.68966566	      0.74022799	      1.22166070	     -0.74368770	      0.68340929	      1.16836687	     -0.69380160	      0.56253549	      1.23802994	     -0.09121533	      0.69975836	      1.15602971	     -0.14110287	      0.65016793	      1.10783148	     -0.14665107	      0.80110316	      1.23585229	     -0.70563016	      0.88828134	      1.25476195	     -0.55603832	      0.91233608	      1.19772073	     -0.57928744
